<svg id="Layer_1" data-name="Layer 1" xmlns="http://www.w3.org/2000/svg"
     viewBox="0 0 1417.32 1072.11">
  <title>1Artboard 42x</title>
  <path
    d="M484.68,234.72h.06a24.34,24.34,0,0,0,24.19-24.17l.66-80.63a22.37,22.37,0,0,0-6.55-16,23.13,23.13,0,0,0-16.5-6.89h-.05a23.56,23.56,0,0,0-23.62,22.72l-1.77,80.62a23.76,23.76,0,0,0,6.78,17.25A23.4,23.4,0,0,0,484.68,234.72ZM468.27,129.86a18.12,18.12,0,0,1,18.21-17.43h0a17.75,17.75,0,0,1,12.67,5.28,17,17,0,0,1,5,12.16l-.66,80.63a18.92,18.92,0,0,1-18.78,18.81h0a18,18,0,0,1-12.95-5.48,18.39,18.39,0,0,1-5.25-13.35Z"/>
  <path
    d="M702.33,236.33a28.45,28.45,0,0,0,28.41-28.41V95.43a28.41,28.41,0,0,0-56.83,0V207.91A28.45,28.45,0,0,0,702.33,236.33Zm-23-140.9a23,23,0,0,1,23-23h0a23,23,0,0,1,23,23V207.91a23,23,0,0,1-46,0Z"/>
  <path
    d="M919.92,234.72H920a23.39,23.39,0,0,0,16.8-7.12,23.75,23.75,0,0,0,6.78-17.25l-1.77-80.62A23.56,23.56,0,0,0,918.18,107h-.05a23.12,23.12,0,0,0-16.5,6.89,22.37,22.37,0,0,0-6.55,16l.66,80.63A24.33,24.33,0,0,0,919.92,234.72Zm-14.45-117a17.75,17.75,0,0,1,12.67-5.28h0a18.12,18.12,0,0,1,18.21,17.43l1.77,80.62a18.39,18.39,0,0,1-5.24,13.35A18,18,0,0,1,920,229.32h0a18.92,18.92,0,0,1-18.78-18.81l-.66-80.63A17,17,0,0,1,905.47,117.71Z"/>
  <path
    d="M1073.22,207.43l2,1.83c6.41,5.83,15.13,10.44,25.22,13.56l1.32,42.41,5.41-.13-1.27-40.77a107.12,107.12,0,0,0,15.23,2.58l1.56.14,1.94.15,2.32.13,1.46.07c1.3,0,2.61.07,3.93.07s2.8,0,4.18-.08l1.3-.06q1.45-.07,2.88-.17l1.47-.11c1-.08,1.94-.18,2.91-.29s2-.24,2.94-.37l1.55-.22c.92-.14,1.83-.3,2.74-.46l.48-.09c2.73-.5,5.39-1.12,8-1.81l-1.27,41.3,5.41.13,1.32-43.08c10.76-3.61,19.82-8.94,25.93-15.57l1.84-2-.15-.13c4.19-5.21,6.54-11,6.54-17.17,0-22.16-30.53-40.2-68.06-40.2s-68.06,18-68.06,40.2c0,7.28,3.31,14.11,9.07,20Zm79.31,12.77-.27,0q-1.81.34-3.65.62h-.09q-1.93.29-3.89.51h-.14c-1.16.13-2.32.23-3.49.32l-1,.07q-1.41.1-2.84.16l-1,0c-1.25,0-2.51.07-3.78.07s-2.38,0-3.57-.06l-1.13,0-2.41-.12-1.29-.09-2.24-.19-1.27-.13-2.37-.28-1-.13q-3.4-.48-6.67-1.16l-.72-.16q-1.32-.29-2.62-.6l-.64-.16c-1-.25-2-.51-2.92-.79l-.14,0c-8.76-2.56-16.43-6.3-22.32-11,11.36-10.63,31.64-17.14,53.86-17.14,20.61,0,39.52,5.55,51.33,15C1178.43,212.2,1166.45,217.55,1152.53,220.2Zm-82.83-32.93c0-19.18,28.11-34.79,62.65-34.79S1195,168.09,1195,187.27a22.27,22.27,0,0,1-5.08,13.71c-12.75-10.33-33.05-16.44-55-16.44-23.77,0-45.62,7.22-57.92,19C1072.33,198.66,1069.7,193.13,1069.7,187.27Z"/>
  <path
    d="M371.85,937.21V800.92H232.16V984.43H371.85ZM366.44,979H237.57V937.21H366.44Zm0-47.22H237.57V806.33H366.44Z"/>
  <path
    d="M532,937.21V800.92H392.33V984.43H532ZM526.62,979H397.74V937.21H526.62Zm0-47.22H397.74V806.33H526.62Z"/>
  <path
    d="M693.14,937.21V800.92H553.45V984.43H693.14ZM687.73,979H558.86V937.21H687.73Zm0-47.22H558.86V806.33H687.73Z"/>
  <path
    d="M861.53,937.21V800.92H721.84V984.43H861.53ZM856.13,979H727.25V937.21H856.13Zm0-47.22H727.25V806.33H856.13Z"/>
  <path
    d="M1021.71,937.21V800.92H882V984.43h139.69ZM1016.3,979H887.43V937.21H1016.3Zm0-47.22H887.43V806.33H1016.3Z"/>
  <path
    d="M1182.82,937.21V800.92H1043.14V984.43h139.69ZM1177.42,979H1048.54V937.21h128.87Zm0-47.22H1048.54V806.33h128.87Z"/>
  <rect x="255.48" y="823.72" width="93.05" height="90.69" rx="15.32" ry="15.32"/>
  <rect x="416.48" y="823.72" width="93.05" height="90.69" rx="15.32" ry="15.32"/>
  <rect x="576.77" y="823.72" width="93.05" height="90.69" rx="15.32" ry="15.32"/>
  <rect x="1068.89" y="823.72" width="93.05" height="90.69" rx="15.32" ry="15.32"/>
  <rect x="906.61" y="823.72" width="93.05" height="90.69" rx="15.32" ry="15.32"/>
  <rect x="746.32" y="823.72" width="93.05" height="90.69" rx="15.32" ry="15.32"/>
  <path
    d="M1207.57,783.36h-.77l-7-23.38h-1q.54-21.7,1-43.49c.67-30.37,1.54-61.55,2.39-91.7l.12-4.14h-994l.09,2.79c.6,18.72,1.32,37.69,2,56q.7,18.48,1.36,36.9c.53,15.14,1.12,30.39,1.64,43.6h-1.55l-8,23.38h-.87l.08,2.3-1.07,3.11h1.17L210.54,1002h990.78l6.09-213.22h1l-.93-3.07Zm-10.88-157.3c-.84,29.72-1.7,60.4-2.35,90.31q-.47,21.66-1,43.22H218.69c-.52-13.16-1.1-28.35-1.63-43.4q-.65-18.43-1.36-36.92c-.66-17.43-1.34-35.42-1.92-53.22ZM215.61,765.38h980.12l5.41,18H209.45Zm980.45,231.2H215.76l-7.29-207.82H1202Z"/>
  <path
    d="M1417.32,616.16l-26.34-247v-.26c-3.77-36.35-10.71-78.6-45.49-120.11-34.08-40.66-75.75-77.47-123.85-109.4-45.86-30.44-97.7-56.56-154.1-77.63C959.32,21.37,835.53,0,709.53,0s-249.79,21.37-358,61.8C295.15,82.87,243.31,109,197.45,139.43c-48.1,31.93-89.77,68.74-123.85,109.4C38.81,290.33,31.87,332.6,28.1,369l-20,199.8C7.45,574,6.84,579.09,6.25,584c-4.82,40-8.63,71.65-4.46,122.3L12.67,936.52c.16,3.41.27,6.44.37,8.86.8,21.49,1.84,24.31,15.89,43l3.75,5,21.37,28.73c1.85,2.48,3.69,5.16,5.64,8l.06.08c10.72,15.57,24.07,35,49.63,36.55,57.88,3.63,138.08,5.32,252.39,5.32,54.26,0,109.15-.36,162.24-.71,49.47-.32,96.18-.63,138.49-.63,14.67,0,27.8,0,40.11.11l6.68,0,7.31,0c12.32-.07,25.4-.11,40-.11,42.21,0,88.79.31,138.1.63H895c53.12.35,108,.71,162.3.71,114.3,0,194.49-1.69,252.37-5.32,25.56-1.6,38.91-21,49.63-36.55l0-.06c2-2.84,3.8-5.52,5.66-8l21.37-28.73,3.75-5c14.05-18.73,15.09-21.55,15.89-43,.1-2.6.21-5.51.37-8.87l10.9-230.36,0-.64ZM1380.84,370h0c-.66-6.39-1.43-13-2.44-19.69C1379.41,357,1380.18,363.6,1380.84,370ZM89.68,262.31c32.79-39.12,73-74.58,119.37-105.39C253.59,127.36,304,102,358.89,81.46,464.77,41.9,586,21,709.53,21S954.3,41.9,1060.18,81.46c54.89,20.51,105.31,45.9,149.83,75.46,46.42,30.82,86.59,66.27,119.37,105.39,31,37,37.1,74,40.7,108.77l20.06,200c.38,3.27.76,6.45,1.14,9.57a106.66,106.66,0,0,0-19.21-28.1c-29.13-30.51-77.3-45-151.63-45.57H1192.1c-4.09-15.12-32.33-26.23-67.83-26.23s-63.77,11.11-67.85,26.23H1028c-4.09-15.12-32.33-26.23-67.83-26.23S896.39,491.91,892.3,507H860c-4.09-15.12-32.33-26.23-67.83-26.23S728.43,491.91,724.34,507H694.72c-4.08-15.12-32.34-26.23-67.85-26.23S563.14,491.91,559,507H526.76c-4.08-15.12-32.34-26.23-67.85-26.23S395.18,491.91,391.08,507H362.64c-4.08-15.12-32.34-26.23-67.85-26.23S231.06,491.91,227,507H198.61C124.3,507.6,76.12,522.08,47,552.59a106.61,106.61,0,0,0-19.21,28.1c.38-3.14.76-6.34,1.14-9.66L49,371.1C52.59,336.33,58.7,299.28,89.68,262.31Zm263.69,289.6.08-.16q.71-1.41,1.37-2.84l.1-.22c.46-1,.91-2,1.33-3l.22-.5h0q1.07-2.57,2-5.21l.16-.44c.26-.76.51-1.52.76-2.28.15-.45.29-.91.44-1.36q.31-1,.61-2t.49-1.75c.16-.6.33-1.2.48-1.81.23-.9.44-1.8.64-2.7.11-.48.22-1,.32-1.44q.33-1.57.62-3.16c.08-.44.15-.89.22-1.33q.22-1.28.4-2.57.1-.69.19-1.39c.12-.89.22-1.78.32-2.68,0-.41.09-.81.13-1.22s.08-.9.12-1.35H390.7c0,.19,0,.39,0,.58s0,.45.06.67.05.58.08.87q.15,1.69.35,3.37l0,.37A104.57,104.57,0,0,0,398,544.49h0l.62,1.46q.86,2.06,1.81,4.07l.06.12q.75,1.58,1.55,3.14l.35.68q.62,1.17,1.27,2.33H351Q352.26,554.14,353.37,551.91ZM327.5,532a152.42,152.42,0,0,0-65.41,0c-9.54,2.23-17.63,5.4-23.67,9.23A98.85,98.85,0,0,1,235,530.64l-.14-.53q-.31-1.22-.59-2.44l-.18-.83c-.37-1.7-.71-3.41-1-5.12l0-.14c-.09-.57-.17-1.14-.25-1.71s-.17-1.2-.25-1.8-.13-1.05-.19-1.58q-.11-1-.21-2.07c0-.45-.08-.9-.12-1.36q-.11-1.46-.18-2.92V510c1.34-14.22,33.61-23.78,62.91-23.78s61.48,9.53,62.9,23.72l0,1h0l.14,1.49h1c0,.27,0,.54-.06.81s-.05.52-.08.78a103.57,103.57,0,0,1-6.85,27.72C345.83,537.68,337.47,534.35,327.5,532Zm75,9.23a98.7,98.7,0,0,1-3.41-10.56l-.16-.62q-.3-1.18-.57-2.37c-.07-.32-.14-.63-.21-.95q-.41-1.86-.74-3.73c-.09-.49-.18-1-.26-1.47s-.16-1.07-.24-1.6-.19-1.27-.27-1.91-.12-1-.18-1.5q-.12-1.08-.22-2.17c0-.42-.08-.85-.11-1.27q-.11-1.47-.18-3V510c1.34-14.23,33.61-23.78,62.91-23.78s61.57,9.56,62.91,23.78l.23,2.45h1c0,.28,0,.56-.07.84s-.05.52-.08.78a103.54,103.54,0,0,1-6.85,27.69c-6.12-4.06-14.47-7.4-24.44-9.73a152.42,152.42,0,0,0-65.41,0C416.67,534.25,408.58,537.42,402.54,541.26Zm115,10.66.08-.16q.71-1.41,1.37-2.84l.1-.22c.46-1,.91-2,1.33-3l.22-.5h0q1.07-2.58,2-5.22l.15-.42c.26-.76.52-1.52.77-2.29.15-.45.29-.9.43-1.35q.32-1,.61-2c.17-.58.33-1.16.48-1.74s.33-1.21.48-1.82c.22-.88.43-1.77.63-2.65.12-.51.23-1,.34-1.54q.33-1.55.61-3.11c.08-.45.15-.9.23-1.35q.21-1.27.4-2.54.1-.7.19-1.41.17-1.33.31-2.66c0-.41.09-.82.13-1.23s.08-.9.12-1.35h30.17c0,.19,0,.39,0,.58s0,.45.06.67.05.59.08.88q.15,1.68.35,3.36l0,.38A104.53,104.53,0,0,0,566,544.49h0l.64,1.5q.85,2,1.79,4l.08.18q.74,1.56,1.53,3.09l.37.7q.61,1.17,1.26,2.32H515.15Q516.37,554.14,517.49,551.92Zm53-10.66a98.74,98.74,0,0,1-3.42-10.61l-.14-.55q-.31-1.21-.59-2.43c-.06-.29-.13-.57-.19-.86q-.51-2.32-.91-4.66c0-.2-.07-.39-.11-.59-.09-.55-.17-1.11-.25-1.66s-.18-1.23-.26-1.85-.12-1-.18-1.54c-.08-.71-.15-1.42-.21-2.14,0-.43-.08-.86-.11-1.3q-.11-1.47-.18-2.95V510c1.34-14.22,33.61-23.78,62.91-23.78s61.48,9.53,62.9,23.72l0,1h0l.14,1.49h1c0,.28,0,.57-.07.85s-.05.51-.08.77A103.46,103.46,0,0,1,684,541.74c-6.12-4.06-14.47-7.4-24.44-9.72a152.42,152.42,0,0,0-65.41,0C584.63,534.25,576.54,537.42,570.5,541.26Zm115,10.66.08-.16q.71-1.41,1.37-2.84l.1-.22c.46-1,.91-2,1.34-3l.21-.48h0q1.07-2.57,2-5.21l.16-.44c.26-.76.51-1.52.76-2.28.15-.45.3-.91.44-1.36q.31-1,.61-2c.17-.58.33-1.17.49-1.75s.33-1.2.48-1.81c.23-.9.44-1.8.64-2.7.11-.48.22-1,.32-1.44q.33-1.57.62-3.16c.08-.44.15-.89.22-1.33q.21-1.28.4-2.57.1-.69.19-1.39.18-1.34.32-2.68c0-.41.09-.81.13-1.22s.08-.9.12-1.35h26.16c0,.45.07.9.12,1.35s.09.82.13,1.23q.14,1.34.31,2.66.09.7.19,1.4c.12.85.26,1.7.4,2.54.08.45.15.9.23,1.35q.29,1.57.61,3.13c.11.5.22,1,.33,1.5.2.89.41,1.79.63,2.67.15.61.32,1.21.48,1.82s.32,1.17.49,1.75.4,1.36.61,2c.14.45.29.91.44,1.36.25.77.5,1.53.76,2.29l.15.42q.94,2.65,2,5.22h0l.23.52c.43,1,.87,2,1.33,3l.1.22q.66,1.43,1.37,2.84l.08.17q1.12,2.23,2.34,4.39H683.11Q684.33,554.14,685.45,551.91ZM735,541.74A103.55,103.55,0,0,1,728.19,514c0-.26-.05-.52-.08-.79s0-.54-.06-.81h1l.23-2.45c1.34-14.23,33.61-23.78,62.91-23.78s61.57,9.56,62.91,23.76v.17q-.07,1.49-.18,3c0,.4-.07.8-.1,1.21q-.1,1.12-.22,2.24c-.05.49-.11,1-.17,1.46-.08.66-.18,1.31-.27,2s-.15,1-.23,1.56-.2,1.15-.31,1.72c-.21,1.17-.44,2.35-.7,3.51-.07.31-.13.62-.2.92q-.27,1.2-.58,2.4l-.15.59a98.42,98.42,0,0,1-3.42,10.58c-6-3.84-14.13-7-23.67-9.23a152.42,152.42,0,0,0-65.41,0C749.52,534.35,741.16,537.68,735,541.74ZM848.73,554l.33-.64q.81-1.58,1.58-3.18l0-.09q1-2,1.81-4.07l.63-1.48h0a104.58,104.58,0,0,0,6.74-26.17c0-.14,0-.29.05-.43q.2-1.65.34-3.3c0-.31.06-.62.08-.93s0-.43.06-.65,0-.39,0-.58h30.17c0,.45.07.9.12,1.35s.09.82.13,1.23q.14,1.33.31,2.66.09.71.19,1.41c.12.85.26,1.69.4,2.54.08.45.15.91.23,1.36q.28,1.56.61,3.1c.11.52.22,1,.34,1.55.2.88.4,1.76.63,2.64.15.61.32,1.22.49,1.83s.32,1.16.48,1.73.4,1.37.61,2.05c.14.45.28.89.43,1.34.25.77.5,1.54.77,2.31l.14.38q.94,2.66,2,5.26h0l.22.51c.43,1,.88,2,1.34,3l.09.2q.67,1.44,1.38,2.85l.08.15q1.12,2.23,2.35,4.39H847.45Q848.11,555.14,848.73,554ZM903,541.74A103.55,103.55,0,0,1,896.15,514c0-.26-.05-.52-.08-.79s0-.54-.06-.81h1l.14-1.49h0l0-1c1.42-14.19,33.64-23.72,62.9-23.72s61.54,9.55,62.91,23.76v.16q-.07,1.49-.18,3c0,.39-.07.79-.1,1.18q-.1,1.14-.23,2.28-.08.71-.17,1.41c-.09.69-.18,1.37-.29,2.05-.07.49-.14,1-.22,1.47q-.25,1.51-.54,3c-.14.71-.29,1.41-.44,2.11-.08.37-.16.74-.24,1.11q-.26,1.14-.55,2.27c-.06.25-.13.5-.19.75a98.84,98.84,0,0,1-3.39,10.5c-6-3.84-14.14-7-23.67-9.23a152.42,152.42,0,0,0-65.41,0C917.48,534.35,909.12,537.68,903,541.74ZM1016.69,554l.33-.64q.81-1.57,1.57-3.17l0-.1q.95-2,1.81-4.05l.63-1.48h0a104.55,104.55,0,0,0,6.74-26.18l0-.39q.2-1.67.34-3.34c0-.3.05-.6.08-.91s0-.44.06-.65,0-.39,0-.58h26.33c0,.45.07.9.12,1.35s.09.82.13,1.23q.14,1.33.31,2.66.09.71.19,1.41c.12.85.26,1.69.4,2.54.08.45.15.91.23,1.36q.28,1.56.61,3.1c.11.52.22,1,.34,1.55.2.88.4,1.76.63,2.64.15.61.32,1.22.49,1.83s.32,1.16.48,1.73.4,1.37.61,2.05c.14.45.28.89.43,1.34.25.77.5,1.54.77,2.31l.14.38q.94,2.66,2,5.26h0l.21.47c.43,1,.89,2,1.35,3.05l.09.2q.67,1.44,1.37,2.85l.08.15q1.12,2.23,2.34,4.39h-52.62Q1016.07,555.14,1016.69,554Zm50.43-12.21a103.47,103.47,0,0,1-6.85-27.72c0-.26-.06-.52-.08-.79s0-.54-.06-.81h1l.23-2.45c1.34-14.22,33.61-23.78,62.91-23.78s61.57,9.56,62.91,23.78v.13q-.07,1.49-.18,3c0,.4-.07.8-.1,1.21q-.1,1.12-.22,2.24c-.05.49-.11,1-.17,1.46-.08.66-.18,1.31-.27,2s-.15,1-.23,1.56-.22,1.24-.33,1.86c-.21,1.12-.43,2.24-.67,3.35-.07.32-.14.64-.21,1q-.27,1.19-.58,2.37l-.16.62a99.19,99.19,0,0,1-3.41,10.57c-6-3.84-14.13-7-23.67-9.23a152.42,152.42,0,0,0-65.41,0C1081.6,534.35,1073.24,537.68,1067.13,541.75ZM60.67,995.89l-11.15-15-3.8-5.08c-5.73-7.64-8.61-11.48-9.94-15S34.33,953.07,34,944.6c-.1-2.61-.21-5.6-.37-9.07L22.74,705.07v-.19c-3.42-41.39-1.26-69.81,2.34-101.31,5.37-19.22,13.92-34.75,25.84-47.24,27.66-29,76-43.34,147.72-43.89h28c0,.19,0,.39,0,.58s0,.43.06.65.05.62.08.93q.14,1.66.34,3.3l0,.42a104.57,104.57,0,0,0,6.74,26.17h0l.64,1.5q.85,2,1.79,4l.09.18q.74,1.56,1.53,3.09l.37.7q.62,1.17,1.26,2.32H166.44c-38.66-1.36-67.94,7.11-87,25.21-17.67,16.76-26.92,42.07-27.49,75.35l8.74,336.82C60.66,994.46,60.67,995.18,60.67,995.89Zm1291.83,7.93-4.33,5.82c-2.1,2.82-4.15,5.8-6.14,8.69-9.4,13.65-18.28,26.55-33.66,27.51-105.1,6.59-268.8,5.51-413.23,4.57-49.14-.32-96.23-.63-138.61-.63-13.89,0-27.27,0-40.06.11q-6.87,0-13.74,0c-51.84-.31-113.54.09-178.87.52-144.41.95-308.09,2-413.18-4.57-15.37-1-24.25-13.86-33.65-27.51-2-2.89-4-5.87-6.14-8.69l-4.32-5.81a63.13,63.13,0,0,1-.49-10.19l-8.74-336.8c.55-31.65,9.23-55.68,25.81-71.4,18-17.06,45.94-25,83.2-23.73h76.44A84.48,84.48,0,0,0,263.34,584l.32.24q1.2.87,2.42,1.68l.71.46q1,.63,2,1.21l1.2.69,1.49.82,1.35.7q.87.43,1.74.83l1.34.59,1.49.61q.86.34,1.72.64l1.34.45c.55.18,1.11.35,1.67.51s1.12.31,1.69.45l1,.25c.79.18,1.58.34,2.37.47l.8.13c.86.14,1.73.25,2.59.34l.49,0c1,.09,1.92.15,2.88.17h1c1,0,1.9,0,2.86-.1h.25c16.9-1.15,33.68-11.6,46.43-28.85q.7-.94,1.38-1.92l.48-.71q.64-.93,1.26-1.88l.11-.17H406.9A84.49,84.49,0,0,0,427.45,584l.34.25q1.19.87,2.41,1.67l.72.47q1,.62,1.93,1.2l1.23.71,1.47.81,1.39.72q.85.42,1.71.82l1.35.59,1.46.6q.87.34,1.75.65l1.33.45c.56.18,1.12.35,1.68.51s1.12.31,1.68.45l1,.25c.79.18,1.58.34,2.37.47l.8.13c.86.14,1.73.25,2.59.34l.49,0c1,.09,1.92.15,2.88.17h1c1,0,1.9,0,2.86-.1h.25c16.9-1.15,33.68-11.6,46.43-28.85q.7-.94,1.38-1.92l.48-.71q.64-.93,1.26-1.88l.11-.17h63a90.34,90.34,0,0,0,11.76,14.71,75.82,75.82,0,0,0,8.78,7.6l.35.26q1.19.86,2.4,1.67l.73.47q1,.61,1.91,1.19l1.25.72,1.46.8,1.41.73q.84.42,1.68.8l1.35.6,1.45.59q.88.34,1.76.66l1.32.45q.84.27,1.68.52t1.68.45l1,.25c.79.18,1.58.33,2.37.47l.8.13c.86.14,1.73.25,2.59.34l.49,0c1,.09,1.92.15,2.88.17h1c1,0,1.9,0,2.85-.1l.26,0c17.51-1.19,34.91-12.37,47.81-30.76l.48-.71q.64-.93,1.26-1.88l.11-.17h59.43l.11.16q.62,1,1.26,1.88l.48.71C754,582.85,771.4,594,788.92,595.22h.26c1,.06,1.9.1,2.85.1h1c1,0,1.92-.08,2.88-.17l.49,0c.86-.09,1.73-.2,2.59-.34l.8-.13c.79-.14,1.58-.29,2.37-.47l1-.25c.57-.14,1.13-.29,1.69-.45s1.11-.33,1.66-.51l1.34-.45q.86-.3,1.71-.64l1.5-.61,1.33-.59q.89-.41,1.78-.85l1.31-.68,1.51-.83,1.17-.68q1-.59,2-1.23l.69-.45q1.22-.81,2.43-1.69l.31-.22a84.48,84.48,0,0,0,20.57-22.32h63l.11.16q.62,1,1.26,1.88l.49.71c12.9,18.39,30.29,29.56,47.8,30.76l.27,0c1,.06,1.9.1,2.85.1h1c1,0,1.92-.08,2.88-.17l.49,0c.86-.09,1.73-.2,2.59-.34l.81-.13c.79-.14,1.58-.29,2.37-.47l1-.25c.56-.14,1.12-.29,1.67-.45s1.13-.33,1.69-.52l1.32-.45q.89-.31,1.77-.66l1.44-.59,1.35-.6q.84-.38,1.67-.8l1.42-.73,1.46-.8,1.25-.72q1-.57,1.92-1.19l.73-.47q1.21-.8,2.4-1.67l.34-.25a84.5,84.5,0,0,0,20.55-22.3h59.16l.11.17q.62.94,1.25,1.86l.5.74c12.9,18.38,30.29,29.55,47.8,30.75h.26c1,.06,1.9.1,2.85.1h1c1,0,1.92-.08,2.88-.17l.49,0c.86-.09,1.73-.2,2.59-.34l.8-.13c.74-.13,1.48-.27,2.22-.43l.15,0,1-.25q.84-.21,1.68-.45c.56-.16,1.12-.33,1.68-.51l1.33-.45q.88-.31,1.75-.65l1.46-.6,1.35-.59q.85-.39,1.7-.81l1.39-.72,1.47-.81,1.23-.71q1-.58,1.93-1.2l.72-.47q1.21-.8,2.41-1.67l.34-.25a84.5,84.5,0,0,0,20.55-22.31h76.53c37.15-1.31,65.12,6.67,83.1,23.73,16.58,15.73,25.26,39.75,25.81,71.29l-8.74,337A62.59,62.59,0,0,1,1352.5,1003.82Zm43.84-298.95-10.91,230.65c-.16,3.47-.28,6.46-.37,9.07-.32,8.47-.48,12.72-1.77,16.19s-4.2,7.39-9.94,15l-3.8,5.08-11.15,15c0-.68,0-1.37,0-2.11l8.74-337c-.58-33.16-9.83-58.47-27.5-75.23-19.07-18.09-48.35-26.58-86.92-25.21h-73.19q.65-1.16,1.27-2.34l.34-.66q.81-1.57,1.57-3.17l0-.09q1-2,1.83-4.1l.61-1.43h0a104.57,104.57,0,0,0,6.74-26.17c0-.15,0-.3.05-.44q.19-1.64.34-3.28c0-.31.06-.63.08-.94s0-.43.06-.64,0-.39,0-.58h27.93c71.75.56,120.08,14.91,147.74,43.89,11.92,12.49,20.47,28,25.84,47.24C1397.6,635.06,1399.76,663.48,1396.34,704.88Z"/>
</svg>
